<?xml version="1.0" encoding="UTF-8" standalone="no"?>
<!DOCTYPE svg PUBLIC "-//W3C//DTD SVG 1.1//EN"
 "http://www.w3.org/Graphics/SVG/1.1/DTD/svg11.dtd">
<!-- Generated by graphviz version 7.1.0 (20230121.1956)
 -->
<!-- Title: web Pages: 1 -->
<svg width="1588pt" height="1493pt"
 viewBox="0.00 0.00 1587.53 1493.25" xmlns="http://www.w3.org/2000/svg" xmlns:xlink="http://www.w3.org/1999/xlink">
<g id="graph0" class="graph" transform="scale(1 1) rotate(0) translate(4 1489.25)">
<title>web</title>
<polygon fill="white" stroke="none" points="-4,4 -4,-1489.25 1583.53,-1489.25 1583.53,4 -4,4"/>
<!-- DuckDuckGo — Privacy, simplified.889891977 -->
<g id="node1" class="node">
<title>DuckDuckGo — Privacy, simplified.889891977</title>
<ellipse fill="none" stroke="black" cx="1136.04" cy="-631.38" rx="156.04" ry="22.76"/>
<text text-anchor="start" x="1033.54" y="-633.18" font-family="Times,serif" font-size="14.00">DuckDuckGo — Privacy, simplified.</text>
<text text-anchor="start" x="1086.04" y="-622.38" font-family="Times,serif" font-size="10.00">https://duckduckgo.com</text>
</g>
<!-- About DuckDuckGo1076641925 -->
<g id="node2" class="node">
<title>About DuckDuckGo1076641925</title>
<ellipse fill="none" stroke="black" cx="793.66" cy="-742.63" rx="101.23" ry="22.76"/>
<text text-anchor="start" x="737.16" y="-744.43" font-family="Times,serif" font-size="14.00">About DuckDuckGo</text>
<text text-anchor="start" x="730.16" y="-733.63" font-family="Times,serif" font-size="10.00">https://duckduckgo.com/about</text>
</g>
<!-- DuckDuckGo — Privacy, simplified.889891977&#45;&gt;About DuckDuckGo1076641925 -->
<g id="edge11" class="edge">
<title>DuckDuckGo — Privacy, simplified.889891977&#45;&gt;About DuckDuckGo1076641925</title>
<path fill="none" stroke="black" d="M1071.23,-652.44C1011.7,-671.78 923.74,-700.36 862.86,-720.14"/>
<polygon fill="black" stroke="black" points="862.06,-716.72 853.64,-723.14 864.23,-723.38 862.06,-716.72"/>
<text text-anchor="middle" x="918.55" y="-690.09" font-family="Times,serif" font-size="14.00">a#unique&#45;selector</text>
</g>
<!-- DuckDuckGo Privacy Newsletter1873091796 -->
<g id="node3" class="node">
<title>DuckDuckGo Privacy Newsletter1873091796</title>
<ellipse fill="none" stroke="black" cx="451.27" cy="-853.87" rx="140.93" ry="22.76"/>
<text text-anchor="start" x="359.77" y="-855.67" font-family="Times,serif" font-size="14.00">DuckDuckGo Privacy Newsletter</text>
<text text-anchor="start" x="378.77" y="-844.87" font-family="Times,serif" font-size="10.00">https://duckduckgo.com/newsletter</text>
</g>
<!-- About DuckDuckGo1076641925&#45;&gt;DuckDuckGo Privacy Newsletter1873091796 -->
<g id="edge10" class="edge">
<title>About DuckDuckGo1076641925&#45;&gt;DuckDuckGo Privacy Newsletter1873091796</title>
<path fill="none" stroke="black" d="M735.19,-761.62C677.32,-780.43 588.52,-809.28 525.66,-829.7"/>
<polygon fill="black" stroke="black" points="524.9,-826.27 516.47,-832.69 527.06,-832.93 524.9,-826.27"/>
<text text-anchor="middle" x="581.93" y="-799.46" font-family="Times,serif" font-size="14.00">a#unique&#45;selector</text>
</g>
<!-- NO TITLE1810458830 -->
<g id="node4" class="node">
<title>NO TITLE1810458830</title>
<ellipse fill="none" stroke="black" cx="1478.42" cy="-965.12" rx="101.23" ry="22.76"/>
<text text-anchor="start" x="1447.92" y="-966.92" font-family="Times,serif" font-size="14.00">NO TITLE</text>
<text text-anchor="start" x="1414.92" y="-956.12" font-family="Times,serif" font-size="10.00">https://twitter.com/@trinefalbe</text>
</g>
<!-- DuckDuckGo Privacy Newsletter1873091796&#45;&gt;NO TITLE1810458830 -->
<g id="edge1" class="edge">
<title>DuckDuckGo Privacy Newsletter1873091796&#45;&gt;NO TITLE1810458830</title>
<path fill="none" stroke="black" d="M569.35,-866.66C772.25,-888.64 1183.71,-933.2 1375.59,-953.98"/>
<polygon fill="black" stroke="black" points="1374.96,-957.44 1385.28,-955.03 1375.72,-950.48 1374.96,-957.44"/>
<text text-anchor="middle" x="923.97" y="-914.12" font-family="Times,serif" font-size="14.00">a#unique&#45;selector</text>
</g>
<!-- NO TITLE2083999882 -->
<g id="node5" class="node">
<title>NO TITLE2083999882</title>
<ellipse fill="none" stroke="black" cx="1216.86" cy="-1325.12" rx="111.95" ry="22.76"/>
<text text-anchor="start" x="1186.36" y="-1326.92" font-family="Times,serif" font-size="14.00">NO TITLE</text>
<text text-anchor="start" x="1145.86" y="-1316.12" font-family="Times,serif" font-size="10.00">https://twitter.com/@siddhantgoel</text>
</g>
<!-- DuckDuckGo Privacy Newsletter1873091796&#45;&gt;NO TITLE2083999882 -->
<g id="edge2" class="edge">
<title>DuckDuckGo Privacy Newsletter1873091796&#45;&gt;NO TITLE2083999882</title>
<path fill="none" stroke="black" d="M487.69,-876.29C613.92,-953.99 1032.64,-1211.73 1171.6,-1297.26"/>
<polygon fill="black" stroke="black" points="1169.48,-1300.06 1179.83,-1302.32 1173.15,-1294.1 1169.48,-1300.06"/>
<text text-anchor="middle" x="781.14" y="-1090.57" font-family="Times,serif" font-size="14.00">a#unique&#45;selector</text>
</g>
<!-- Privacy, simplified. — DuckDuckGo Browser Extension and Mobile App611520720 -->
<g id="node6" class="node">
<title>Privacy, simplified. — DuckDuckGo Browser Extension and Mobile App611520720</title>
<ellipse fill="none" stroke="black" cx="793.66" cy="-1462.63" rx="297.88" ry="22.76"/>
<text text-anchor="start" x="591.16" y="-1464.43" font-family="Times,serif" font-size="14.00">Privacy, simplified. — DuckDuckGo Browser Extension and Mobile App</text>
<text text-anchor="start" x="734.66" y="-1453.63" font-family="Times,serif" font-size="10.00">https://duckduckgo.com/app</text>
</g>
<!-- DuckDuckGo Privacy Newsletter1873091796&#45;&gt;Privacy, simplified. — DuckDuckGo Browser Extension and Mobile App611520720 -->
<g id="edge3" class="edge">
<title>DuckDuckGo Privacy Newsletter1873091796&#45;&gt;Privacy, simplified. — DuckDuckGo Browser Extension and Mobile App611520720</title>
<path fill="none" stroke="black" d="M464.28,-876.99C516.82,-970.41 713.54,-1320.18 775.11,-1429.66"/>
<polygon fill="black" stroke="black" points="771.94,-1431.16 779.9,-1438.16 778.04,-1427.73 771.94,-1431.16"/>
<text text-anchor="middle" x="571.19" y="-1157.13" font-family="Times,serif" font-size="14.00">a#unique&#45;selector</text>
</g>
<!-- DuckDuckGo is Hiring!1640296160 -->
<g id="node7" class="node">
<title>DuckDuckGo is Hiring!1640296160</title>
<ellipse fill="none" stroke="black" cx="370.45" cy="-1325.12" rx="104.8" ry="22.76"/>
<text text-anchor="start" x="304.45" y="-1326.92" font-family="Times,serif" font-size="14.00">DuckDuckGo is Hiring!</text>
<text text-anchor="start" x="304.95" y="-1316.12" font-family="Times,serif" font-size="10.00">https://duckduckgo.com/careers</text>
</g>
<!-- DuckDuckGo Privacy Newsletter1873091796&#45;&gt;DuckDuckGo is Hiring!1640296160 -->
<g id="edge4" class="edge">
<title>DuckDuckGo Privacy Newsletter1873091796&#45;&gt;DuckDuckGo is Hiring!1640296160</title>
<path fill="none" stroke="black" d="M447.32,-876.92C434.19,-953.5 391.96,-1199.72 376.33,-1290.81"/>
<polygon fill="black" stroke="black" points="372.89,-1290.18 374.65,-1300.62 379.79,-1291.36 372.89,-1290.18"/>
<text text-anchor="middle" x="363.33" y="-1087.67" font-family="Times,serif" font-size="14.00">a#unique&#45;selector</text>
</g>
<!-- DuckDuckGo Privacy272678513 -->
<g id="node8" class="node">
<title>DuckDuckGo Privacy272678513</title>
<ellipse fill="none" stroke="black" cx="108.89" cy="-965.12" rx="106.13" ry="22.76"/>
<text text-anchor="start" x="48.39" y="-966.92" font-family="Times,serif" font-size="14.00">DuckDuckGo Privacy</text>
<text text-anchor="start" x="41.89" y="-956.12" font-family="Times,serif" font-size="10.00">https://duckduckgo.com/privacy</text>
</g>
<!-- DuckDuckGo Privacy Newsletter1873091796&#45;&gt;DuckDuckGo Privacy272678513 -->
<g id="edge5" class="edge">
<title>DuckDuckGo Privacy Newsletter1873091796&#45;&gt;DuckDuckGo Privacy272678513</title>
<path fill="none" stroke="black" d="M387.68,-874.54C328.39,-893.8 240.14,-922.48 178.87,-942.38"/>
<polygon fill="black" stroke="black" points="178.01,-938.98 169.58,-945.4 180.17,-945.64 178.01,-938.98"/>
<text text-anchor="middle" x="234.78" y="-912.26" font-family="Times,serif" font-size="14.00">a#unique&#45;selector</text>
</g>
<!-- DuckDuckGo Press Page88646218 -->
<g id="node9" class="node">
<title>DuckDuckGo Press Page88646218</title>
<ellipse fill="none" stroke="black" cx="108.89" cy="-520.14" rx="108.79" ry="22.76"/>
<text text-anchor="start" x="39.89" y="-521.94" font-family="Times,serif" font-size="14.00">DuckDuckGo Press Page</text>
<text text-anchor="start" x="46.89" y="-511.14" font-family="Times,serif" font-size="10.00">https://duckduckgo.com/press</text>
</g>
<!-- DuckDuckGo Privacy Newsletter1873091796&#45;&gt;DuckDuckGo Press Page88646218 -->
<g id="edge6" class="edge">
<title>DuckDuckGo Privacy Newsletter1873091796&#45;&gt;DuckDuckGo Press Page88646218</title>
<path fill="none" stroke="black" d="M428.01,-831.2C368.11,-772.81 208.52,-617.25 140.41,-550.86"/>
<polygon fill="black" stroke="black" points="142.88,-548.37 133.27,-543.9 137.99,-553.39 142.88,-548.37"/>
<text text-anchor="middle" x="235.71" y="-694.83" font-family="Times,serif" font-size="14.00">a#unique&#45;selector</text>
</g>
<!-- Spread Privacy1603177117 -->
<g id="node10" class="node">
<title>Spread Privacy1603177117</title>
<ellipse fill="none" stroke="black" cx="370.45" cy="-160.14" rx="86.03" ry="22.76"/>
<text text-anchor="start" x="328.95" y="-161.94" font-family="Times,serif" font-size="14.00">Spread Privacy</text>
<text text-anchor="start" x="317.45" y="-151.14" font-family="Times,serif" font-size="10.00">https://spreadprivacy.com</text>
</g>
<!-- DuckDuckGo Privacy Newsletter1873091796&#45;&gt;Spread Privacy1603177117 -->
<g id="edge7" class="edge">
<title>DuckDuckGo Privacy Newsletter1873091796&#45;&gt;Spread Privacy1603177117</title>
<path fill="none" stroke="black" d="M448.59,-830.79C436.68,-728.63 388.7,-316.82 374.46,-194.53"/>
<polygon fill="black" stroke="black" points="377.96,-194.33 373.32,-184.81 371.01,-195.15 377.96,-194.33"/>
<text text-anchor="middle" x="363.02" y="-516.46" font-family="Times,serif" font-size="14.00">a#unique&#45;selector</text>
</g>
<!-- NO TITLE987249254 -->
<g id="node11" class="node">
<title>NO TITLE987249254</title>
<ellipse fill="none" stroke="black" cx="793.66" cy="-22.63" rx="103.48" ry="22.76"/>
<text text-anchor="start" x="763.16" y="-24.43" font-family="Times,serif" font-size="14.00">NO TITLE</text>
<text text-anchor="start" x="728.66" y="-13.63" font-family="Times,serif" font-size="10.00">https://twitter.com/duckduckgo</text>
</g>
<!-- DuckDuckGo Privacy Newsletter1873091796&#45;&gt;NO TITLE987249254 -->
<g id="edge8" class="edge">
<title>DuckDuckGo Privacy Newsletter1873091796&#45;&gt;NO TITLE987249254</title>
<path fill="none" stroke="black" d="M460.79,-830.77C508.69,-714.49 723.35,-193.31 779.94,-55.92"/>
<polygon fill="black" stroke="black" points="783.04,-57.59 783.61,-47.02 776.57,-54.93 783.04,-57.59"/>
<text text-anchor="middle" x="571.87" y="-447.15" font-family="Times,serif" font-size="14.00">a#unique&#45;selector</text>
</g>
<!-- DuckDuckGo1263668904 -->
<g id="node12" class="node">
<title>DuckDuckGo1263668904</title>
<ellipse fill="none" stroke="black" cx="1216.86" cy="-160.14" rx="105.22" ry="22.76"/>
<text text-anchor="start" x="1178.86" y="-161.94" font-family="Times,serif" font-size="14.00">DuckDuckGo</text>
<text text-anchor="start" x="1150.36" y="-151.14" font-family="Times,serif" font-size="10.00">https://reddit.com/r/duckduckgo</text>
</g>
<!-- DuckDuckGo Privacy Newsletter1873091796&#45;&gt;DuckDuckGo1263668904 -->
<g id="edge9" class="edge">
<title>DuckDuckGo Privacy Newsletter1873091796&#45;&gt;DuckDuckGo1263668904</title>
<path fill="none" stroke="black" d="M476.31,-831.19C589.67,-728.46 1054.89,-306.91 1183.68,-190.2"/>
<polygon fill="black" stroke="black" points="1185.83,-192.97 1190.89,-183.67 1181.13,-187.79 1185.83,-192.97"/>
<text text-anchor="middle" x="781.49" y="-514.49" font-family="Times,serif" font-size="14.00">a#unique&#45;selector</text>
</g>
</g>
</svg>
